# xmcd CD database file
#
# Track frame offsets:
#	150
#	11592
#	24599
#	37989
#	52208
#	65897
#	80524
#	94156
#	105713
#	120016
#	133815
#	146575
#	161036
#	176065
#	190476
#	202773
#
# Disc length: 2879 seconds
#
# Revision: 1
# Processed by: cddbd v1.4PL0 Copyright (c) Steve Scherf et al.
# Submitted via: CDex 1.50beta9
#
DISCID=e00b3d10
DTITLE=ELLA FITZGERALD - FIRST STEPS TO FAME VOL. 1
DYEAR=2002
DGENRE=Jazz
TTITLE0=A-Tisket A-Tasket
TTITLE1=Got A Pebble In My Shoe
TTITLE2=Betcha Nickel
TTITLE3=I Want The Waiter
TTITLE4=Moon Ray
TTITLE5=Stairway To The Stars
TTITLE6=Sing Song Swing
TTITLE7=Three Little Words
TTITLE8=Five O'Clock Whistle
TTITLE9=Keep Cool, Fool
TTITLE10=Sugar Blues
TTITLE11=Somebody Nobioy Loves
TTITLE12=He's My Guy
TTITLE13=The Dipsy Doodle
TTITLE14=Big Boy Blue
TTITLE15=You'll Have To Swing It 
EXTD=YEAR: 2002
EXTT0=
EXTT1=
EXTT2=
EXTT3=
EXTT4=
EXTT5=
EXTT6=
EXTT7=
EXTT8=
EXTT9=
EXTT10=
EXTT11=
EXTT12=
EXTT13=
EXTT14=
EXTT15=
PLAYORDER=
